<mxfile host="www.draw.io" modified="2020-02-16T04:56:44.746Z" agent="Mozilla/5.0 (Windows NT 10.0; Win64; x64) AppleWebKit/537.36 (KHTML, like Gecko) Chrome/80.0.3987.100 Safari/537.36" etag="CmYIow--jVHDFYfbXTZA" version="12.7.0" type="github" pages="3">
  <diagram id="388FPFcyQWfM3EbTZie2" name="16.1: Display List of Submitted Timesheets">
    <mxGraphModel dx="1038" dy="580" grid="1" gridSize="10" guides="1" tooltips="1" connect="1" arrows="1" fold="1" page="1" pageScale="1" pageWidth="850" pageHeight="1100" math="0" shadow="0">
      <root>
        <mxCell id="0"/>
        <mxCell id="1" parent="0"/>
        <mxCell id="_ojdc1T2RU2IvwStqLE--1" value="16.1&lt;br&gt;Display List of Submitted Timesheets" style="whiteSpace=wrap;html=1;aspect=fixed;" parent="1" vertex="1">
          <mxGeometry x="350" y="50" width="80" height="80" as="geometry"/>
        </mxCell>
        <mxCell id="_ojdc1T2RU2IvwStqLE--6" value="" style="endArrow=classic;html=1;exitX=0.25;exitY=1;exitDx=0;exitDy=0;entryX=0.5;entryY=0;entryDx=0;entryDy=0;strokeWidth=2;" parent="1" source="_ojdc1T2RU2IvwStqLE--1" target="dZDlf9cetlAtHMAyCo_O-1" edge="1">
          <mxGeometry width="50" height="50" relative="1" as="geometry">
            <mxPoint x="240" y="170" as="sourcePoint"/>
            <mxPoint x="165" y="250" as="targetPoint"/>
          </mxGeometry>
        </mxCell>
        <mxCell id="_ojdc1T2RU2IvwStqLE--29" value="" style="endArrow=classic;html=1;exitX=0.75;exitY=1;exitDx=0;exitDy=0;strokeWidth=2;entryX=0.5;entryY=0;entryDx=0;entryDy=0;" parent="1" source="_ojdc1T2RU2IvwStqLE--1" target="dZDlf9cetlAtHMAyCo_O-32" edge="1">
          <mxGeometry width="50" height="50" relative="1" as="geometry">
            <mxPoint x="470" y="160" as="sourcePoint"/>
            <mxPoint x="540" y="260" as="targetPoint"/>
          </mxGeometry>
        </mxCell>
        <mxCell id="_ojdc1T2RU2IvwStqLE--31" value="" style="endArrow=classic;html=1;entryX=0.5;entryY=0;entryDx=0;entryDy=0;strokeWidth=2;exitX=0.5;exitY=1;exitDx=0;exitDy=0;" parent="1" source="_ojdc1T2RU2IvwStqLE--1" target="dZDlf9cetlAtHMAyCo_O-5" edge="1">
          <mxGeometry width="50" height="50" relative="1" as="geometry">
            <mxPoint x="380" y="170" as="sourcePoint"/>
            <mxPoint x="355" y="250" as="targetPoint"/>
          </mxGeometry>
        </mxCell>
        <mxCell id="dZDlf9cetlAtHMAyCo_O-1" value="16.1.1&lt;br&gt;Confirm User" style="shape=process;whiteSpace=wrap;html=1;backgroundOutline=1;" vertex="1" parent="1">
          <mxGeometry x="165" y="190" width="90" height="80" as="geometry"/>
        </mxCell>
        <mxCell id="dZDlf9cetlAtHMAyCo_O-3" value="" style="endArrow=classic;html=1;" edge="1" parent="1">
          <mxGeometry width="50" height="50" relative="1" as="geometry">
            <mxPoint x="200" y="505" as="sourcePoint"/>
            <mxPoint x="200" y="505" as="targetPoint"/>
          </mxGeometry>
        </mxCell>
        <mxCell id="dZDlf9cetlAtHMAyCo_O-4" value="" style="endArrow=classic;html=1;strokeWidth=2;entryX=0.5;entryY=0;entryDx=0;entryDy=0;exitX=0.5;exitY=1;exitDx=0;exitDy=0;" edge="1" parent="1" source="dZDlf9cetlAtHMAyCo_O-5" target="dZDlf9cetlAtHMAyCo_O-30">
          <mxGeometry width="50" height="50" relative="1" as="geometry">
            <mxPoint x="415" y="340" as="sourcePoint"/>
            <mxPoint x="287.5" y="480" as="targetPoint"/>
          </mxGeometry>
        </mxCell>
        <mxCell id="dZDlf9cetlAtHMAyCo_O-5" value="16.1.2&lt;br&gt;Query database" style="shape=process;whiteSpace=wrap;html=1;backgroundOutline=1;" vertex="1" parent="1">
          <mxGeometry x="380" y="250" width="90" height="90" as="geometry"/>
        </mxCell>
        <mxCell id="dZDlf9cetlAtHMAyCo_O-6" value="16.1.2.1&lt;br&gt;Connect to Database" style="shape=process;whiteSpace=wrap;html=1;backgroundOutline=1;" vertex="1" parent="1">
          <mxGeometry x="130" y="370" width="90" height="80" as="geometry"/>
        </mxCell>
        <mxCell id="dZDlf9cetlAtHMAyCo_O-7" value="" style="endArrow=classic;html=1;strokeWidth=2;exitX=0;exitY=0.5;exitDx=0;exitDy=0;entryX=1;entryY=0;entryDx=0;entryDy=0;" edge="1" parent="1" source="dZDlf9cetlAtHMAyCo_O-5" target="dZDlf9cetlAtHMAyCo_O-6">
          <mxGeometry width="50" height="50" relative="1" as="geometry">
            <mxPoint x="167.5" y="140" as="sourcePoint"/>
            <mxPoint x="215" y="230" as="targetPoint"/>
          </mxGeometry>
        </mxCell>
        <mxCell id="dZDlf9cetlAtHMAyCo_O-8" value="" style="ellipse;whiteSpace=wrap;html=1;aspect=fixed;" vertex="1" parent="1">
          <mxGeometry x="460" y="400" width="10" height="10" as="geometry"/>
        </mxCell>
        <mxCell id="dZDlf9cetlAtHMAyCo_O-9" value="" style="ellipse;whiteSpace=wrap;html=1;aspect=fixed;" vertex="1" parent="1">
          <mxGeometry x="510" y="430" width="10" height="10" as="geometry"/>
        </mxCell>
        <mxCell id="dZDlf9cetlAtHMAyCo_O-10" value="" style="ellipse;whiteSpace=wrap;html=1;aspect=fixed;" vertex="1" parent="1">
          <mxGeometry x="340" y="400" width="10" height="10" as="geometry"/>
        </mxCell>
        <mxCell id="dZDlf9cetlAtHMAyCo_O-11" value="" style="ellipse;whiteSpace=wrap;html=1;aspect=fixed;" vertex="1" parent="1">
          <mxGeometry x="350" y="445" width="10" height="10" as="geometry"/>
        </mxCell>
        <mxCell id="dZDlf9cetlAtHMAyCo_O-12" value="" style="ellipse;whiteSpace=wrap;html=1;aspect=fixed;" vertex="1" parent="1">
          <mxGeometry x="310" y="340" width="10" height="10" as="geometry"/>
        </mxCell>
        <mxCell id="dZDlf9cetlAtHMAyCo_O-13" value="" style="ellipse;whiteSpace=wrap;html=1;aspect=fixed;" vertex="1" parent="1">
          <mxGeometry x="300" y="290" width="10" height="10" as="geometry"/>
        </mxCell>
        <mxCell id="dZDlf9cetlAtHMAyCo_O-14" value="Database credentials" style="text;html=1;strokeColor=none;fillColor=none;align=center;verticalAlign=middle;whiteSpace=wrap;rounded=0;" vertex="1" parent="1">
          <mxGeometry x="240" y="280" width="40" height="20" as="geometry"/>
        </mxCell>
        <mxCell id="dZDlf9cetlAtHMAyCo_O-15" value="" style="endArrow=classic;html=1;" edge="1" parent="1">
          <mxGeometry width="50" height="50" relative="1" as="geometry">
            <mxPoint x="300" y="300" as="sourcePoint"/>
            <mxPoint x="270" y="320" as="targetPoint"/>
          </mxGeometry>
        </mxCell>
        <mxCell id="dZDlf9cetlAtHMAyCo_O-16" value="" style="endArrow=classic;html=1;" edge="1" parent="1">
          <mxGeometry width="50" height="50" relative="1" as="geometry">
            <mxPoint x="320" y="340" as="sourcePoint"/>
            <mxPoint x="350" y="320" as="targetPoint"/>
          </mxGeometry>
        </mxCell>
        <mxCell id="dZDlf9cetlAtHMAyCo_O-17" value="Database connection object" style="text;html=1;strokeColor=none;fillColor=none;align=center;verticalAlign=middle;whiteSpace=wrap;rounded=0;" vertex="1" parent="1">
          <mxGeometry x="330" y="350" width="40" height="20" as="geometry"/>
        </mxCell>
        <mxCell id="dZDlf9cetlAtHMAyCo_O-18" value="" style="endArrow=classic;html=1;" edge="1" parent="1">
          <mxGeometry width="50" height="50" relative="1" as="geometry">
            <mxPoint x="360" y="445" as="sourcePoint"/>
            <mxPoint x="389.5" y="405" as="targetPoint"/>
          </mxGeometry>
        </mxCell>
        <mxCell id="dZDlf9cetlAtHMAyCo_O-21" value="" style="endArrow=classic;html=1;" edge="1" parent="1">
          <mxGeometry width="50" height="50" relative="1" as="geometry">
            <mxPoint x="340" y="405" as="sourcePoint"/>
            <mxPoint x="310" y="435" as="targetPoint"/>
          </mxGeometry>
        </mxCell>
        <mxCell id="dZDlf9cetlAtHMAyCo_O-22" value="" style="endArrow=classic;html=1;exitX=1;exitY=1;exitDx=0;exitDy=0;entryX=0.5;entryY=0;entryDx=0;entryDy=0;strokeWidth=2;" edge="1" parent="1" source="dZDlf9cetlAtHMAyCo_O-5" target="dZDlf9cetlAtHMAyCo_O-29">
          <mxGeometry width="50" height="50" relative="1" as="geometry">
            <mxPoint x="480" y="450" as="sourcePoint"/>
            <mxPoint x="492.5" y="480" as="targetPoint"/>
          </mxGeometry>
        </mxCell>
        <mxCell id="dZDlf9cetlAtHMAyCo_O-23" value="" style="endArrow=classic;html=1;" edge="1" parent="1">
          <mxGeometry width="50" height="50" relative="1" as="geometry">
            <mxPoint x="470" y="410" as="sourcePoint"/>
            <mxPoint x="480" y="450" as="targetPoint"/>
          </mxGeometry>
        </mxCell>
        <mxCell id="dZDlf9cetlAtHMAyCo_O-24" value="" style="endArrow=classic;html=1;" edge="1" parent="1">
          <mxGeometry width="50" height="50" relative="1" as="geometry">
            <mxPoint x="510" y="430" as="sourcePoint"/>
            <mxPoint x="500" y="400" as="targetPoint"/>
          </mxGeometry>
        </mxCell>
        <mxCell id="dZDlf9cetlAtHMAyCo_O-25" value="Form variables" style="text;html=1;strokeColor=none;fillColor=none;align=center;verticalAlign=middle;whiteSpace=wrap;rounded=0;" vertex="1" parent="1">
          <mxGeometry x="270" y="400" width="40" height="20" as="geometry"/>
        </mxCell>
        <mxCell id="dZDlf9cetlAtHMAyCo_O-26" value="Prepared statement" style="text;html=1;strokeColor=none;fillColor=none;align=center;verticalAlign=middle;whiteSpace=wrap;rounded=0;" vertex="1" parent="1">
          <mxGeometry x="370" y="450" width="40" height="20" as="geometry"/>
        </mxCell>
        <mxCell id="dZDlf9cetlAtHMAyCo_O-27" value="Prepared statement" style="text;html=1;strokeColor=none;fillColor=none;align=center;verticalAlign=middle;whiteSpace=wrap;rounded=0;" vertex="1" parent="1">
          <mxGeometry x="420" y="420" width="40" height="20" as="geometry"/>
        </mxCell>
        <mxCell id="dZDlf9cetlAtHMAyCo_O-28" value="Statement object" style="text;html=1;strokeColor=none;fillColor=none;align=center;verticalAlign=middle;whiteSpace=wrap;rounded=0;" vertex="1" parent="1">
          <mxGeometry x="520" y="410" width="40" height="20" as="geometry"/>
        </mxCell>
        <mxCell id="dZDlf9cetlAtHMAyCo_O-29" value="16.1.2.3&lt;br&gt;Execute statement" style="shape=process;whiteSpace=wrap;html=1;backgroundOutline=1;" vertex="1" parent="1">
          <mxGeometry x="460" y="485" width="90" height="90" as="geometry"/>
        </mxCell>
        <mxCell id="dZDlf9cetlAtHMAyCo_O-30" value="16.1.2.2&lt;br&gt;Prepare statement" style="shape=process;whiteSpace=wrap;html=1;backgroundOutline=1;" vertex="1" parent="1">
          <mxGeometry x="245" y="485" width="90" height="90" as="geometry"/>
        </mxCell>
        <mxCell id="dZDlf9cetlAtHMAyCo_O-32" value="16.1.3&lt;br&gt;Display Submitted Timesheets" style="whiteSpace=wrap;html=1;aspect=fixed;" vertex="1" parent="1">
          <mxGeometry x="630" y="190" width="80" height="80" as="geometry"/>
        </mxCell>
        <mxCell id="dZDlf9cetlAtHMAyCo_O-33" value="" style="endArrow=classic;html=1;exitX=0.817;exitY=0.943;exitDx=0;exitDy=0;exitPerimeter=0;" edge="1" source="dZDlf9cetlAtHMAyCo_O-34" parent="1">
          <mxGeometry width="50" height="50" relative="1" as="geometry">
            <mxPoint x="215" y="120" as="sourcePoint"/>
            <mxPoint x="240" y="160" as="targetPoint"/>
          </mxGeometry>
        </mxCell>
        <mxCell id="dZDlf9cetlAtHMAyCo_O-34" value="" style="ellipse;whiteSpace=wrap;html=1;aspect=fixed;fillColor=#FFFFFF;direction=south;" vertex="1" parent="1">
          <mxGeometry x="320" y="120" width="10" height="10" as="geometry"/>
        </mxCell>
        <mxCell id="dZDlf9cetlAtHMAyCo_O-37" value="User Type Variable" style="text;html=1;strokeColor=none;fillColor=none;align=center;verticalAlign=middle;whiteSpace=wrap;rounded=0;" vertex="1" parent="1">
          <mxGeometry x="230" y="114.99999999999994" width="60" height="20" as="geometry"/>
        </mxCell>
        <mxCell id="dZDlf9cetlAtHMAyCo_O-38" value="" style="endArrow=classic;html=1;exitX=1;exitY=0.5;exitDx=0;exitDy=0;" edge="1" source="dZDlf9cetlAtHMAyCo_O-39" parent="1">
          <mxGeometry width="50" height="50" relative="1" as="geometry">
            <mxPoint x="520" y="170" as="sourcePoint"/>
            <mxPoint x="450" y="150" as="targetPoint"/>
          </mxGeometry>
        </mxCell>
        <mxCell id="dZDlf9cetlAtHMAyCo_O-39" value="" style="ellipse;whiteSpace=wrap;html=1;aspect=fixed;fillColor=#FFFFFF;direction=west;" vertex="1" parent="1">
          <mxGeometry x="520" y="160" width="10" height="10" as="geometry"/>
        </mxCell>
        <mxCell id="dZDlf9cetlAtHMAyCo_O-40" value="Submitted Timesheets" style="text;html=1;strokeColor=none;fillColor=none;align=center;verticalAlign=middle;whiteSpace=wrap;rounded=0;" vertex="1" parent="1">
          <mxGeometry x="450" y="169.99999999999994" width="60" height="20" as="geometry"/>
        </mxCell>
        <mxCell id="dZDlf9cetlAtHMAyCo_O-41" value="" style="endArrow=classic;html=1;curved=1;" edge="1" parent="1">
          <mxGeometry width="50" height="50" relative="1" as="geometry">
            <mxPoint x="420" y="135" as="sourcePoint"/>
            <mxPoint x="420" y="135" as="targetPoint"/>
            <Array as="points">
              <mxPoint x="450" y="130"/>
              <mxPoint x="450" y="140"/>
              <mxPoint x="410" y="155"/>
              <mxPoint x="410" y="140"/>
            </Array>
          </mxGeometry>
        </mxCell>
        <mxCell id="dZDlf9cetlAtHMAyCo_O-42" value="" style="ellipse;whiteSpace=wrap;html=1;aspect=fixed;fillColor=#000000;direction=north;" vertex="1" parent="1">
          <mxGeometry x="530" y="140.0000000000001" width="10" height="10" as="geometry"/>
        </mxCell>
        <mxCell id="dZDlf9cetlAtHMAyCo_O-43" value="" style="endArrow=classic;html=1;exitX=0.771;exitY=0.027;exitDx=0;exitDy=0;exitPerimeter=0;" edge="1" source="dZDlf9cetlAtHMAyCo_O-42" parent="1">
          <mxGeometry width="50" height="50" relative="1" as="geometry">
            <mxPoint x="588" y="130.0000000000001" as="sourcePoint"/>
            <mxPoint x="460" y="120" as="targetPoint"/>
          </mxGeometry>
        </mxCell>
        <mxCell id="dZDlf9cetlAtHMAyCo_O-45" value="No more Timesheets" style="text;html=1;strokeColor=none;fillColor=none;align=center;verticalAlign=middle;whiteSpace=wrap;rounded=0;" vertex="1" parent="1">
          <mxGeometry x="490" y="99.99999999999994" width="60" height="20" as="geometry"/>
        </mxCell>
      </root>
    </mxGraphModel>
  </diagram>
  <diagram id="lAIaKbYm4KC-3WAeHbnQ" name="16.2: Display Staff Member&#39;s Timesheet">
    <mxGraphModel dx="1221" dy="682" grid="1" gridSize="10" guides="1" tooltips="1" connect="1" arrows="1" fold="1" page="1" pageScale="1" pageWidth="850" pageHeight="1100" math="0" shadow="0">
      <root>
        <mxCell id="SdBaXeOrpZn_XTAbsB8x-0"/>
        <mxCell id="SdBaXeOrpZn_XTAbsB8x-1" parent="SdBaXeOrpZn_XTAbsB8x-0"/>
        <mxCell id="Q9qRvPpiVnYhHlw9IZeU-0" value="16.2&lt;br&gt;Display Staff Timesheet" style="whiteSpace=wrap;html=1;aspect=fixed;" parent="SdBaXeOrpZn_XTAbsB8x-1" vertex="1">
          <mxGeometry x="355" y="80" width="80" height="80" as="geometry"/>
        </mxCell>
        <mxCell id="Q9qRvPpiVnYhHlw9IZeU-1" value="16.2.2&lt;br&gt;Display Timesheet of Selected Staff Member" style="whiteSpace=wrap;html=1;aspect=fixed;" parent="SdBaXeOrpZn_XTAbsB8x-1" vertex="1">
          <mxGeometry x="440" y="260" width="80" height="80" as="geometry"/>
        </mxCell>
        <mxCell id="Q9qRvPpiVnYhHlw9IZeU-2" value="" style="endArrow=classic;html=1;exitX=0.75;exitY=1;exitDx=0;exitDy=0;strokeWidth=2;entryX=0.5;entryY=0;entryDx=0;entryDy=0;" parent="SdBaXeOrpZn_XTAbsB8x-1" source="Q9qRvPpiVnYhHlw9IZeU-0" target="Q9qRvPpiVnYhHlw9IZeU-1" edge="1">
          <mxGeometry width="50" height="50" relative="1" as="geometry">
            <mxPoint x="490" y="220" as="sourcePoint"/>
            <mxPoint x="515" y="250" as="targetPoint"/>
          </mxGeometry>
        </mxCell>
        <mxCell id="Q9qRvPpiVnYhHlw9IZeU-3" value="" style="endArrow=classic;html=1;exitX=0.25;exitY=1;exitDx=0;exitDy=0;entryX=0.5;entryY=0;entryDx=0;entryDy=0;strokeWidth=2;" parent="SdBaXeOrpZn_XTAbsB8x-1" source="Q9qRvPpiVnYhHlw9IZeU-0" target="Lgzy1vG4ACXsLvki4l13-28" edge="1">
          <mxGeometry width="50" height="50" relative="1" as="geometry">
            <mxPoint x="397.5" y="150" as="sourcePoint"/>
            <mxPoint x="335" y="250" as="targetPoint"/>
          </mxGeometry>
        </mxCell>
        <mxCell id="Lgzy1vG4ACXsLvki4l13-26" value="" style="endArrow=classic;html=1;" edge="1" parent="SdBaXeOrpZn_XTAbsB8x-1">
          <mxGeometry width="50" height="50" relative="1" as="geometry">
            <mxPoint x="110" y="510" as="sourcePoint"/>
            <mxPoint x="110" y="510" as="targetPoint"/>
          </mxGeometry>
        </mxCell>
        <mxCell id="Lgzy1vG4ACXsLvki4l13-27" value="" style="endArrow=classic;html=1;strokeWidth=2;entryX=0.5;entryY=0;entryDx=0;entryDy=0;exitX=0.5;exitY=1;exitDx=0;exitDy=0;" edge="1" parent="SdBaXeOrpZn_XTAbsB8x-1" source="Lgzy1vG4ACXsLvki4l13-28" target="Lgzy1vG4ACXsLvki4l13-51">
          <mxGeometry width="50" height="50" relative="1" as="geometry">
            <mxPoint x="325" y="345" as="sourcePoint"/>
            <mxPoint x="197.5" y="485" as="targetPoint"/>
          </mxGeometry>
        </mxCell>
        <mxCell id="Lgzy1vG4ACXsLvki4l13-28" value="16.2.1&lt;br&gt;Query database" style="shape=process;whiteSpace=wrap;html=1;backgroundOutline=1;" vertex="1" parent="SdBaXeOrpZn_XTAbsB8x-1">
          <mxGeometry x="290" y="255" width="90" height="90" as="geometry"/>
        </mxCell>
        <mxCell id="Lgzy1vG4ACXsLvki4l13-29" value="16.2.1.1&lt;br&gt;Connect to Database" style="shape=process;whiteSpace=wrap;html=1;backgroundOutline=1;" vertex="1" parent="SdBaXeOrpZn_XTAbsB8x-1">
          <mxGeometry x="40" y="375" width="90" height="80" as="geometry"/>
        </mxCell>
        <mxCell id="Lgzy1vG4ACXsLvki4l13-30" value="" style="endArrow=classic;html=1;strokeWidth=2;exitX=0;exitY=0.5;exitDx=0;exitDy=0;entryX=1;entryY=0;entryDx=0;entryDy=0;" edge="1" parent="SdBaXeOrpZn_XTAbsB8x-1" source="Lgzy1vG4ACXsLvki4l13-28" target="Lgzy1vG4ACXsLvki4l13-29">
          <mxGeometry width="50" height="50" relative="1" as="geometry">
            <mxPoint x="77.5" y="145" as="sourcePoint"/>
            <mxPoint x="125" y="235" as="targetPoint"/>
          </mxGeometry>
        </mxCell>
        <mxCell id="Lgzy1vG4ACXsLvki4l13-31" value="" style="ellipse;whiteSpace=wrap;html=1;aspect=fixed;" vertex="1" parent="SdBaXeOrpZn_XTAbsB8x-1">
          <mxGeometry x="370" y="405" width="10" height="10" as="geometry"/>
        </mxCell>
        <mxCell id="Lgzy1vG4ACXsLvki4l13-32" value="" style="ellipse;whiteSpace=wrap;html=1;aspect=fixed;" vertex="1" parent="SdBaXeOrpZn_XTAbsB8x-1">
          <mxGeometry x="420" y="435" width="10" height="10" as="geometry"/>
        </mxCell>
        <mxCell id="Lgzy1vG4ACXsLvki4l13-33" value="" style="ellipse;whiteSpace=wrap;html=1;aspect=fixed;" vertex="1" parent="SdBaXeOrpZn_XTAbsB8x-1">
          <mxGeometry x="250" y="405" width="10" height="10" as="geometry"/>
        </mxCell>
        <mxCell id="Lgzy1vG4ACXsLvki4l13-34" value="" style="ellipse;whiteSpace=wrap;html=1;aspect=fixed;" vertex="1" parent="SdBaXeOrpZn_XTAbsB8x-1">
          <mxGeometry x="260" y="450" width="10" height="10" as="geometry"/>
        </mxCell>
        <mxCell id="Lgzy1vG4ACXsLvki4l13-35" value="" style="ellipse;whiteSpace=wrap;html=1;aspect=fixed;" vertex="1" parent="SdBaXeOrpZn_XTAbsB8x-1">
          <mxGeometry x="220" y="345" width="10" height="10" as="geometry"/>
        </mxCell>
        <mxCell id="Lgzy1vG4ACXsLvki4l13-36" value="" style="ellipse;whiteSpace=wrap;html=1;aspect=fixed;" vertex="1" parent="SdBaXeOrpZn_XTAbsB8x-1">
          <mxGeometry x="210" y="295" width="10" height="10" as="geometry"/>
        </mxCell>
        <mxCell id="Lgzy1vG4ACXsLvki4l13-37" value="Database credentials" style="text;html=1;strokeColor=none;fillColor=none;align=center;verticalAlign=middle;whiteSpace=wrap;rounded=0;" vertex="1" parent="SdBaXeOrpZn_XTAbsB8x-1">
          <mxGeometry x="150" y="285" width="40" height="20" as="geometry"/>
        </mxCell>
        <mxCell id="Lgzy1vG4ACXsLvki4l13-38" value="" style="endArrow=classic;html=1;" edge="1" parent="SdBaXeOrpZn_XTAbsB8x-1">
          <mxGeometry width="50" height="50" relative="1" as="geometry">
            <mxPoint x="210" y="305" as="sourcePoint"/>
            <mxPoint x="180" y="325" as="targetPoint"/>
          </mxGeometry>
        </mxCell>
        <mxCell id="Lgzy1vG4ACXsLvki4l13-39" value="" style="endArrow=classic;html=1;" edge="1" parent="SdBaXeOrpZn_XTAbsB8x-1">
          <mxGeometry width="50" height="50" relative="1" as="geometry">
            <mxPoint x="230" y="345" as="sourcePoint"/>
            <mxPoint x="260" y="325" as="targetPoint"/>
          </mxGeometry>
        </mxCell>
        <mxCell id="Lgzy1vG4ACXsLvki4l13-40" value="Database connection object" style="text;html=1;strokeColor=none;fillColor=none;align=center;verticalAlign=middle;whiteSpace=wrap;rounded=0;" vertex="1" parent="SdBaXeOrpZn_XTAbsB8x-1">
          <mxGeometry x="240" y="355" width="40" height="20" as="geometry"/>
        </mxCell>
        <mxCell id="Lgzy1vG4ACXsLvki4l13-41" value="" style="endArrow=classic;html=1;" edge="1" parent="SdBaXeOrpZn_XTAbsB8x-1">
          <mxGeometry width="50" height="50" relative="1" as="geometry">
            <mxPoint x="270" y="450" as="sourcePoint"/>
            <mxPoint x="299.5" y="410" as="targetPoint"/>
          </mxGeometry>
        </mxCell>
        <mxCell id="Lgzy1vG4ACXsLvki4l13-42" value="" style="endArrow=classic;html=1;" edge="1" parent="SdBaXeOrpZn_XTAbsB8x-1">
          <mxGeometry width="50" height="50" relative="1" as="geometry">
            <mxPoint x="250" y="410" as="sourcePoint"/>
            <mxPoint x="220" y="440" as="targetPoint"/>
          </mxGeometry>
        </mxCell>
        <mxCell id="Lgzy1vG4ACXsLvki4l13-43" value="" style="endArrow=classic;html=1;exitX=0.75;exitY=1;exitDx=0;exitDy=0;entryX=0.5;entryY=0;entryDx=0;entryDy=0;strokeWidth=2;" edge="1" parent="SdBaXeOrpZn_XTAbsB8x-1" source="Lgzy1vG4ACXsLvki4l13-28" target="Lgzy1vG4ACXsLvki4l13-50">
          <mxGeometry width="50" height="50" relative="1" as="geometry">
            <mxPoint x="390" y="455" as="sourcePoint"/>
            <mxPoint x="402.5" y="485" as="targetPoint"/>
          </mxGeometry>
        </mxCell>
        <mxCell id="Lgzy1vG4ACXsLvki4l13-44" value="" style="endArrow=classic;html=1;exitX=1;exitY=1;exitDx=0;exitDy=0;" edge="1" parent="SdBaXeOrpZn_XTAbsB8x-1" source="Lgzy1vG4ACXsLvki4l13-31">
          <mxGeometry width="50" height="50" relative="1" as="geometry">
            <mxPoint x="390" y="415" as="sourcePoint"/>
            <mxPoint x="400" y="455" as="targetPoint"/>
          </mxGeometry>
        </mxCell>
        <mxCell id="Lgzy1vG4ACXsLvki4l13-45" value="" style="endArrow=classic;html=1;" edge="1" parent="SdBaXeOrpZn_XTAbsB8x-1">
          <mxGeometry width="50" height="50" relative="1" as="geometry">
            <mxPoint x="420" y="435" as="sourcePoint"/>
            <mxPoint x="410" y="405" as="targetPoint"/>
          </mxGeometry>
        </mxCell>
        <mxCell id="Lgzy1vG4ACXsLvki4l13-46" value="Form variables" style="text;html=1;strokeColor=none;fillColor=none;align=center;verticalAlign=middle;whiteSpace=wrap;rounded=0;" vertex="1" parent="SdBaXeOrpZn_XTAbsB8x-1">
          <mxGeometry x="180" y="405" width="40" height="20" as="geometry"/>
        </mxCell>
        <mxCell id="Lgzy1vG4ACXsLvki4l13-47" value="Prepared statement" style="text;html=1;strokeColor=none;fillColor=none;align=center;verticalAlign=middle;whiteSpace=wrap;rounded=0;" vertex="1" parent="SdBaXeOrpZn_XTAbsB8x-1">
          <mxGeometry x="280" y="455" width="40" height="20" as="geometry"/>
        </mxCell>
        <mxCell id="Lgzy1vG4ACXsLvki4l13-48" value="Prepared statement" style="text;html=1;strokeColor=none;fillColor=none;align=center;verticalAlign=middle;whiteSpace=wrap;rounded=0;" vertex="1" parent="SdBaXeOrpZn_XTAbsB8x-1">
          <mxGeometry x="330" y="425" width="40" height="20" as="geometry"/>
        </mxCell>
        <mxCell id="Lgzy1vG4ACXsLvki4l13-49" value="Statement object" style="text;html=1;strokeColor=none;fillColor=none;align=center;verticalAlign=middle;whiteSpace=wrap;rounded=0;" vertex="1" parent="SdBaXeOrpZn_XTAbsB8x-1">
          <mxGeometry x="430" y="415" width="40" height="20" as="geometry"/>
        </mxCell>
        <mxCell id="Lgzy1vG4ACXsLvki4l13-50" value="16.2.1.3&lt;br&gt;Execute statement" style="shape=process;whiteSpace=wrap;html=1;backgroundOutline=1;" vertex="1" parent="SdBaXeOrpZn_XTAbsB8x-1">
          <mxGeometry x="380" y="480" width="90" height="90" as="geometry"/>
        </mxCell>
        <mxCell id="Lgzy1vG4ACXsLvki4l13-51" value="16.2.1.2&lt;br&gt;Prepare statement" style="shape=process;whiteSpace=wrap;html=1;backgroundOutline=1;" vertex="1" parent="SdBaXeOrpZn_XTAbsB8x-1">
          <mxGeometry x="155" y="480" width="90" height="90" as="geometry"/>
        </mxCell>
        <mxCell id="Lgzy1vG4ACXsLvki4l13-52" value="" style="endArrow=classic;html=1;exitX=0.817;exitY=0.943;exitDx=0;exitDy=0;exitPerimeter=0;" edge="1" source="Lgzy1vG4ACXsLvki4l13-53" parent="SdBaXeOrpZn_XTAbsB8x-1">
          <mxGeometry width="50" height="50" relative="1" as="geometry">
            <mxPoint x="450" y="240" as="sourcePoint"/>
            <mxPoint x="420" y="190" as="targetPoint"/>
          </mxGeometry>
        </mxCell>
        <mxCell id="Lgzy1vG4ACXsLvki4l13-53" value="" style="ellipse;whiteSpace=wrap;html=1;aspect=fixed;fillColor=#FFFFFF;" vertex="1" parent="SdBaXeOrpZn_XTAbsB8x-1">
          <mxGeometry x="440" y="230" width="10" height="10" as="geometry"/>
        </mxCell>
        <mxCell id="Lgzy1vG4ACXsLvki4l13-54" value="Selected Staff Timesheet" style="text;html=1;strokeColor=none;fillColor=none;align=center;verticalAlign=middle;whiteSpace=wrap;rounded=0;" vertex="1" parent="SdBaXeOrpZn_XTAbsB8x-1">
          <mxGeometry x="373" y="213.99999999999994" width="60" height="20" as="geometry"/>
        </mxCell>
      </root>
    </mxGraphModel>
  </diagram>
  <diagram id="ddEL1Jjd4j1c8ut1bAk0" name="16.3: Submit Approved Hours">
    <mxGraphModel dx="716" dy="400" grid="1" gridSize="10" guides="1" tooltips="1" connect="1" arrows="1" fold="1" page="1" pageScale="1" pageWidth="850" pageHeight="1100" math="0" shadow="0">
      <root>
        <mxCell id="BbtsieJgcBwEsiLIWdfI-0"/>
        <mxCell id="BbtsieJgcBwEsiLIWdfI-1" parent="BbtsieJgcBwEsiLIWdfI-0"/>
        <mxCell id="c6KakWU_pSAkIUs3xcQD-14" value="16.3&lt;br&gt;Submit Approved hours" style="whiteSpace=wrap;html=1;aspect=fixed;" parent="BbtsieJgcBwEsiLIWdfI-1" vertex="1">
          <mxGeometry x="391.25" y="140" width="80" height="80" as="geometry"/>
        </mxCell>
        <mxCell id="c6KakWU_pSAkIUs3xcQD-15" value="" style="endArrow=classic;html=1;exitX=0.25;exitY=1;exitDx=0;exitDy=0;entryX=0.5;entryY=0;entryDx=0;entryDy=0;strokeWidth=2;" parent="BbtsieJgcBwEsiLIWdfI-1" source="c6KakWU_pSAkIUs3xcQD-14" target="c6KakWU_pSAkIUs3xcQD-22" edge="1">
          <mxGeometry width="50" height="50" relative="1" as="geometry">
            <mxPoint x="310" y="260" as="sourcePoint"/>
            <mxPoint x="265" y="340" as="targetPoint"/>
          </mxGeometry>
        </mxCell>
        <mxCell id="c6KakWU_pSAkIUs3xcQD-19" value="" style="endArrow=classic;html=1;strokeWidth=2;entryX=0.5;entryY=0;entryDx=0;entryDy=0;exitX=0.5;exitY=1;exitDx=0;exitDy=0;" parent="BbtsieJgcBwEsiLIWdfI-1" source="c6KakWU_pSAkIUs3xcQD-14" target="c6KakWU_pSAkIUs3xcQD-20" edge="1">
          <mxGeometry width="50" height="50" relative="1" as="geometry">
            <mxPoint x="480" y="200" as="sourcePoint"/>
            <mxPoint x="560" y="340" as="targetPoint"/>
          </mxGeometry>
        </mxCell>
        <mxCell id="c6KakWU_pSAkIUs3xcQD-20" value="16.3.2&lt;br&gt;Insert Approved Hours into Shift Table" style="whiteSpace=wrap;html=1;aspect=fixed;" parent="BbtsieJgcBwEsiLIWdfI-1" vertex="1">
          <mxGeometry x="390" y="371.25" width="82.5" height="82.5" as="geometry"/>
        </mxCell>
        <mxCell id="c6KakWU_pSAkIUs3xcQD-22" value="16.3.1&lt;br&gt;Retrieve Approved Hours from Timesheet" style="whiteSpace=wrap;html=1;aspect=fixed;" parent="BbtsieJgcBwEsiLIWdfI-1" vertex="1">
          <mxGeometry x="290" y="370" width="85" height="85" as="geometry"/>
        </mxCell>
        <mxCell id="c6KakWU_pSAkIUs3xcQD-23" value="16.3.3&lt;br&gt;Change Status of Shifts to Approved" style="whiteSpace=wrap;html=1;aspect=fixed;" parent="BbtsieJgcBwEsiLIWdfI-1" vertex="1">
          <mxGeometry x="490" y="371.25" width="82.5" height="82.5" as="geometry"/>
        </mxCell>
        <mxCell id="c6KakWU_pSAkIUs3xcQD-24" value="" style="endArrow=classic;html=1;exitX=0.75;exitY=1;exitDx=0;exitDy=0;entryX=0.5;entryY=0;entryDx=0;entryDy=0;strokeWidth=2;" parent="BbtsieJgcBwEsiLIWdfI-1" source="c6KakWU_pSAkIUs3xcQD-14" target="c6KakWU_pSAkIUs3xcQD-23" edge="1">
          <mxGeometry width="50" height="50" relative="1" as="geometry">
            <mxPoint x="578.75" y="200" as="sourcePoint"/>
            <mxPoint x="500" y="260" as="targetPoint"/>
          </mxGeometry>
        </mxCell>
        <mxCell id="0Wg5hKmAzSbSRC20bdKf-0" value="" style="endArrow=classic;html=1;exitX=0.817;exitY=0.943;exitDx=0;exitDy=0;exitPerimeter=0;" edge="1" source="0Wg5hKmAzSbSRC20bdKf-1" parent="BbtsieJgcBwEsiLIWdfI-1">
          <mxGeometry width="50" height="50" relative="1" as="geometry">
            <mxPoint x="340" y="300" as="sourcePoint"/>
            <mxPoint x="380" y="260" as="targetPoint"/>
          </mxGeometry>
        </mxCell>
        <mxCell id="0Wg5hKmAzSbSRC20bdKf-1" value="" style="ellipse;whiteSpace=wrap;html=1;aspect=fixed;fillColor=#FFFFFF;direction=south;" vertex="1" parent="BbtsieJgcBwEsiLIWdfI-1">
          <mxGeometry x="340" y="300" width="10" height="10" as="geometry"/>
        </mxCell>
        <mxCell id="0Wg5hKmAzSbSRC20bdKf-2" value="Approved Hours" style="text;html=1;strokeColor=none;fillColor=none;align=center;verticalAlign=middle;whiteSpace=wrap;rounded=0;" vertex="1" parent="BbtsieJgcBwEsiLIWdfI-1">
          <mxGeometry x="302.5" y="259.99999999999994" width="60" height="20" as="geometry"/>
        </mxCell>
        <mxCell id="0Wg5hKmAzSbSRC20bdKf-3" value="" style="endArrow=classic;html=1;exitX=0.5;exitY=0;exitDx=0;exitDy=0;" edge="1" parent="BbtsieJgcBwEsiLIWdfI-1" source="0Wg5hKmAzSbSRC20bdKf-4">
          <mxGeometry width="50" height="50" relative="1" as="geometry">
            <mxPoint x="445" y="250" as="sourcePoint"/>
            <mxPoint x="415" y="290" as="targetPoint"/>
          </mxGeometry>
        </mxCell>
        <mxCell id="0Wg5hKmAzSbSRC20bdKf-4" value="" style="ellipse;whiteSpace=wrap;html=1;aspect=fixed;fillColor=#FFFFFF;direction=east;" vertex="1" parent="BbtsieJgcBwEsiLIWdfI-1">
          <mxGeometry x="410" y="250" width="10" height="10" as="geometry"/>
        </mxCell>
        <mxCell id="0Wg5hKmAzSbSRC20bdKf-5" value="Approved Hours" style="text;html=1;strokeColor=none;fillColor=none;align=center;verticalAlign=middle;whiteSpace=wrap;rounded=0;" vertex="1" parent="BbtsieJgcBwEsiLIWdfI-1">
          <mxGeometry x="375" y="294.99999999999994" width="60" height="20" as="geometry"/>
        </mxCell>
        <mxCell id="0Wg5hKmAzSbSRC20bdKf-7" value="" style="endArrow=classic;html=1;exitX=0.5;exitY=0;exitDx=0;exitDy=0;" edge="1" parent="BbtsieJgcBwEsiLIWdfI-1" source="0Wg5hKmAzSbSRC20bdKf-8">
          <mxGeometry width="50" height="50" relative="1" as="geometry">
            <mxPoint x="545" y="275" as="sourcePoint"/>
            <mxPoint x="515" y="315" as="targetPoint"/>
          </mxGeometry>
        </mxCell>
        <mxCell id="0Wg5hKmAzSbSRC20bdKf-8" value="" style="ellipse;whiteSpace=wrap;html=1;aspect=fixed;fillColor=#FFFFFF;direction=east;" vertex="1" parent="BbtsieJgcBwEsiLIWdfI-1">
          <mxGeometry x="490" y="260" width="10" height="10" as="geometry"/>
        </mxCell>
        <mxCell id="0Wg5hKmAzSbSRC20bdKf-9" value="Shift Status" style="text;html=1;strokeColor=none;fillColor=none;align=center;verticalAlign=middle;whiteSpace=wrap;rounded=0;" vertex="1" parent="BbtsieJgcBwEsiLIWdfI-1">
          <mxGeometry x="500" y="269.99999999999994" width="60" height="20" as="geometry"/>
        </mxCell>
      </root>
    </mxGraphModel>
  </diagram>
</mxfile>
